<svg version="1.1" id="圖層_1" xmlns="http://www.w3.org/2000/svg" xmlns:xlink="http://www.w3.org/1999/xlink" x="0px" y="0px" viewBox="0 0 100 100" style="transform-origin: 50px 50px 0px;" xml:space="preserve"><g style="transform-origin: 50px 50px 0px;"><g style="transform-origin: 50px 50px 0px; transform: scale(0.6);"><g style="transform-origin: 50px 50px 0px;"><g><g style="transform-origin: 50px 50px 0px;"><g><g class="ld ld-breath" style="transform-origin: 50px 50px 0px; animation-duration: 1s; animation-delay: -1s; animation-direction: normal;"><path style="fill:#333" d="M47.5,90l1.1-36.2c0-0.8,0.7-1.4,1.4-1.3c0.7,0,1.3,0.6,1.3,1.3L52.5,90c0,1.4-1,2.5-2.4,2.6 s-2.5-1-2.6-2.4C47.5,90.1,47.5,90,47.5,90z" fill="rgb(51, 51, 51)"></path></g></g></g><g style="transform-origin: 50px 50px 0px;"><g><g class="ld ld-breath" style="transform-origin: 50px 50px 0px; animation-duration: 1s; animation-delay: -0.947368s; animation-direction: normal;"><path style="fill:#abbd81;stroke:#333;stroke-width:3.5;stroke-miterlimit:10" d="M79.4,45.4c-10.7,9.9-28.3,8.3-28.3,8.3 S50.8,36,61.5,26.1s28.3-8.3,28.3-8.3S90.1,35.5,79.4,45.4z" stroke="rgb(51, 51, 51)" fill="rgb(171, 189, 129)"></path></g><g style="transform-origin: 50px 50px 0px;"><g><g class="ld ld-breath" style="transform-origin: 50px 50px 0px; animation-duration: 1s; animation-delay: -0.894737s; animation-direction: normal;"><path style="fill:#333" d="M61.4,44.2c1-1.9,2.3-3.6,3.6-5.3c1.4-1.6,2.8-3.1,4.3-4.5c1.5-1.4,3.1-2.7,4.8-4 c1.7-1.2,3.5-2.4,5.5-3.2c-1,2-2.3,3.6-3.6,5.3c-1.4,1.6-2.8,3.1-4.3,4.5c-1.5,1.4-3.1,2.7-4.8,4C65.2,42.2,63.4,43.3,61.4,44.2z" fill="rgb(51, 51, 51)"></path></g></g></g></g></g><g style="transform-origin: 50px 50px 0px;"><g><g class="ld ld-breath" style="transform-origin: 50px 50px 0px; animation-duration: 1s; animation-delay: -0.842105s; animation-direction: normal;"><path style="fill:#abbd81;stroke:#333;stroke-width:3.5;stroke-miterlimit:10" d="M20.6,45.4c10.7,9.9,28.3,8.3,28.3,8.3 S49.2,36,38.5,26.1s-28.3-8.3-28.3-8.3S9.9,35.5,20.6,45.4z" stroke="rgb(51, 51, 51)" fill="rgb(171, 189, 129)"></path></g><g style="transform-origin: 50px 50px 0px;"><g><g class="ld ld-breath" style="transform-origin: 50px 50px 0px; animation-duration: 1s; animation-delay: -0.789474s; animation-direction: normal;"><path style="fill:#333" d="M38.6,44.2c-2-0.9-3.8-2-5.5-3.2c-1.7-1.2-3.3-2.6-4.8-4c-1.5-1.4-3-2.9-4.3-4.5 c-1.3-1.6-2.6-3.3-3.6-5.3c2,0.9,3.8,2,5.5,3.2c1.7,1.2,3.3,2.6,4.8,4c1.5,1.4,3,2.9,4.3,4.5C36.3,40.5,37.6,42.2,38.6,44.2z" fill="rgb(51, 51, 51)"></path></g></g></g></g></g><metadata xmlns:d="https://loading.io/stock/" class="ld ld-breath" style="transform-origin: 50px 50px 0px; animation-duration: 1s; animation-delay: -0.736842s; animation-direction: normal;">
<d:name class="ld ld-breath" style="transform-origin: 50px 50px 0px; animation-duration: 1s; animation-delay: -0.684211s; animation-direction: normal;">leaf</d:name>
<d:tags class="ld ld-breath" style="transform-origin: 50px 50px 0px; animation-duration: 1s; animation-delay: -0.631579s; animation-direction: normal;">leaf,plant,leaves,tree,bud,burgreen,shoot,sprout,stem,grow,newbie,tender</d:tags>
<d:license class="ld ld-breath" style="transform-origin: 50px 50px 0px; animation-duration: 1s; animation-delay: -0.578947s; animation-direction: normal;">cc-by</d:license>
<d:slug class="ld ld-breath" style="transform-origin: 50px 50px 0px; animation-duration: 1s; animation-delay: -0.526316s; animation-direction: normal;">ijxb1a</d:slug>
</metadata></g></g></g></g><style type="text/css" class="ld ld-breath" style="transform-origin: 50px 50px 0px; animation-duration: 1s; animation-delay: -0.473684s; animation-direction: normal;">@keyframes ld-breath {
  0% {
    -webkit-transform: scale(0.86);
    transform: scale(0.86);
  }
  50% {
    -webkit-transform: scale(1.06);
    transform: scale(1.06);
  }
  100% {
    -webkit-transform: scale(0.86);
    transform: scale(0.86);
  }
}
@-webkit-keyframes ld-breath {
  0% {
    -webkit-transform: scale(0.86);
    transform: scale(0.86);
  }
  50% {
    -webkit-transform: scale(1.06);
    transform: scale(1.06);
  }
  100% {
    -webkit-transform: scale(0.86);
    transform: scale(0.86);
  }
}
.ld.ld-breath {
  -webkit-animation: ld-breath 1s infinite;
  animation: ld-breath 1s infinite;
}
</style></svg>