<?xml version="1.0" encoding="iso-8859-1"?>
<!-- Generator: Adobe Illustrator 19.1.0, SVG Export Plug-In . SVG Version: 6.00 Build 0)  -->
<svg version="1.1" id="Capa_1" xmlns="http://www.w3.org/2000/svg" xmlns:xlink="http://www.w3.org/1999/xlink" x="0px" y="0px"
	 viewBox="0 0 504.073 504.073" style="enable-background:new 0 0 504.073 504.073;" xml:space="preserve">
<g>
	<path d="M252.036,0C113.057,0,0.001,113.056,0.001,252.036s113.056,252.037,252.036,252.037s252.036-113.057,252.036-252.037
		S391.016,0,252.036,0z M26.657,188.927l162.27-162.27c11.945-3.349,24.275-5.764,36.904-7.178L19.479,225.831
		C20.893,213.202,23.307,200.872,26.657,188.927z M18.012,252.756L234.035,36.733v29.759L19.767,280.76
		C18.638,271.577,18.041,262.232,18.012,252.756z M23.497,302.489L234.035,91.951v29.755L29.929,325.812
		C27.394,318.203,25.247,310.42,23.497,302.489z M234.035,147.164v29.742l-187.33,187.33c-3.557-6.483-6.812-13.153-9.754-19.988
		L234.035,147.164z M234.035,202.365v29.753L68.757,397.396c-4.416-5.556-8.58-11.319-12.486-17.268L234.035,202.365z
		 M234.035,342.524L126.864,449.695c-6.017-3.824-11.845-7.92-17.474-12.261l124.645-124.645V342.524z M234.035,367.982v29.759
		l-70.807,70.807c-6.925-2.851-13.682-6.024-20.257-9.502L234.035,367.982z M234.035,423.2v29.753l-28.475,28.475
		c-8.041-1.627-15.934-3.667-23.655-6.097L234.035,423.2z M234.035,478.411v6.973c-2.139-0.164-4.269-0.361-6.391-0.582
		L234.035,478.411z M147.366,42.759L42.759,147.366C65.42,102.244,102.243,65.42,147.366,42.759z M80.526,411.085l153.509-153.509
		v29.754L95.505,425.86C90.294,421.161,85.299,416.228,80.526,411.085z M252.038,486.07V18.003
		c129.043,0,234.033,104.99,234.033,234.033S381.08,486.07,252.038,486.07z"/>
</g>
<g>
</g>
<g>
</g>
<g>
</g>
<g>
</g>
<g>
</g>
<g>
</g>
<g>
</g>
<g>
</g>
<g>
</g>
<g>
</g>
<g>
</g>
<g>
</g>
<g>
</g>
<g>
</g>
<g>
</g>
</svg>
