<svg xmlns="http://www.w3.org/2000/svg" xmlns:xlink="http://www.w3.org/1999/xlink" version="1.1" enable-background="new 0 0 100 100" xml:space="preserve" width="97.08029198096509" height="91.42335778109918" style=""><rect id="backgroundrect" width="100%" height="100%" x="0" y="0" fill="none" stroke="none" class="" style=""/><g class="currentLayer" style=""><title>Layer 1</title><g id="svg_1" class="selected" stroke="#ffffff" stroke-opacity="1" fill="#ffffff" fill-opacity="1"><path d="M74.7,36.6l-1.1,1.3L72.8,39l-1.2,0.4l-1.8,0.4l-1.3-1.3l-1.1-1.8l1.9-1.4L70,34l1.5-1.7l1.2,2c0.8,0.1,1.5,0.2,2.3,0.3   C74.9,35.2,74.7,35.9,74.7,36.6L74.7,36.6z M67.6,31.7l-1.7,1.5l-1.2,1.3L63,34.8l-2.3-1.1L59,33.1l-1.2-2.6l1.6-3l2.4-0.1l2.3-2   l1.3,2.8c1,0.3,2,0.5,3,0.8C68.2,29.9,67.9,30.8,67.6,31.7L67.6,31.7z M82.8,46.9v2.2l-1.8,1.3l-1.9,0.8l-1.6-1.3l-1.5-1.1l-1-1.9   l0.3-2.2l1.9-1.1l1.7-1.3l1.9,1.2c0.4,0.5,0.9,1,1.3,1.5C82.3,45.5,82.5,46.3,82.8,46.9L82.8,46.9z M90.6,41.8l-1.8,0.6l-2.5-0.2   l0.4,2.4l0.9,1.1l1.3,0.8l1.7,2.5l1.6-2.8l2.6,0.6l-0.7-2.3v-1.6c-0.3-0.4-0.9-1.7-1.3-1.8c-0.2-0.1-0.9,0.3-1.1,0.3   C91.2,41.6,90.8,41.7,90.6,41.8L90.6,41.8z M84.9,35.4L85,38l-2.5,1.3l-2.9-1.1l-0.7-2.9l2.1-1.7l1.5-2.3   C83.4,32.7,84.2,33.9,84.9,35.4L84.9,35.4z M84.1,55.9l0.8,1.3l1.4,0.6l1.5-0.5l1.9-1.3l-1.2-2.2h-2.1c-0.4,0-2-0.3-2.2,0   C83.8,54,84,55.5,84.1,55.9L84.1,55.9z M31.4,72.1l14.8,2.5l14.7-0.8l2.8-0.6l7-2.1l6.1-2.1l2.4-1.3l2-4.2l-2.3-4.8l-5-6.8   l-2.3-3.7l-1.7-3.6l-4.5-0.8l-0.9-2.3l-0.9-2.3l-3.4-3.4l-2.4-0.3L53.4,39l-4-0.4l-1.2-2.1l-4.9-0.7l-4.1-0.9L37.1,34l-3.3,1.5   l-5.6,3.2l-0.5-0.9L23.4,34l-0.8,0.9l-5,8.1l-1,2.7l-1.1,0.8l-2.1,1l-2.3,7.3l-1.8,3.3l-3.1,2.6l-0.9,9.4L31.4,72.1L31.4,72.1z" id="svg_2" stroke="#ffffff" stroke-opacity="1" fill="#ffffff" fill-opacity="1"/></g></g></svg>