<svg xmlns="http://www.w3.org/2000/svg" xmlns:xlink="http://www.w3.org/1999/xlink" version="1.1" x="0px" y="0px" viewBox="0 0 100 125" enable-background="new 0 0 100 100" xml:space="preserve"><g><path d="M88.202,89c-0.774-3.328-2.675-6.146-5.264-8.087l2.843-36.663h4.494L86.38,33.375H74.241   c-0.503-4.978-4.717-8.875-9.824-8.875c-0.119,0-0.239,0.002-0.361,0.008c-1.93-4.154-6.14-6.883-10.764-6.883   c-5.076,0-9.599,3.3-11.226,8.016c-0.747-0.177-1.508-0.266-2.274-0.266c-2.066,0-4.002,0.654-5.615,1.76v-5.659   c0.059-0.598,0.264-3.862-1.906-6.328c-1.569-1.783-3.94-2.688-7.048-2.688h-0.994l-0.224,0.969   c-0.034,0.147-0.806,3.629,1.34,6.327c1.346,1.691,3.473,2.651,6.332,2.862v6.953c-0.807,1.119-1.389,2.407-1.676,3.804H14.37   L10.475,44.25h4.516l3.124,32.053c-0.233,0.691-0.364,1.429-0.364,2.197c0,0.765,0.128,1.525,0.375,2.245   c-2.836,1.992-4.859,4.922-5.727,8.255H8v2.5h68V89H14.996c0.891-2.785,2.774-5.183,5.337-6.709l1.035-0.617l-0.578-1.057   c-0.354-0.646-0.54-1.378-0.54-2.117c0-2.435,1.981-4.416,4.417-4.416c0.22,0,0.457,0.021,0.725,0.065l1.099,0.181l0.306-1.07   c1.179-4.127,4.998-7.01,9.287-7.01c2.37,0,4.654,0.876,6.433,2.468l1.15,1.028l0.768-1.338c1.59-2.771,4.553-4.491,7.732-4.491   c4.464,0,8.262,3.338,8.833,7.765l0.203,1.581l1.487-0.575c0.75-0.29,1.527-0.438,2.311-0.438c3.538,0,6.417,2.878,6.417,6.416   c0,0.229-0.014,0.455-0.036,0.677l-0.164,1.587l1.58-0.22c0.619-0.087,1.134-0.127,1.62-0.127c5.29,0,9.782,3.464,11.199,8.417   H78.75v2.5h13.5V89H88.202z M26.343,15.011c1.787,0.17,3.142,0.764,4.038,1.773c0.935,1.052,1.224,2.39,1.303,3.328   c-2.032-0.178-3.499-0.814-4.37-1.897C26.482,17.18,26.33,15.891,26.343,15.011z M39.792,27.875c0.909,0,1.811,0.169,2.681,0.503   l1.357,0.521l0.312-1.419c0.937-4.261,4.785-7.354,9.15-7.354c3.906,0,7.438,2.469,8.79,6.144l0.346,0.941l0.994-0.134   C63.808,27.024,64.124,27,64.417,27c3.727,0,6.809,2.781,7.299,6.375h-39.15C33.451,30.202,36.396,27.875,39.792,27.875z    M16.13,35.875h68.49l2.104,5.875H14.025L16.13,35.875z M73.898,78.095C73.604,73.443,69.725,69.75,65,69.75   c-0.605,0-1.206,0.063-1.799,0.187c-1.295-4.945-5.808-8.52-11.035-8.52c-3.59,0-6.963,1.711-9.106,4.545   c-2.04-1.435-4.469-2.212-6.977-2.212c-5.05,0-9.582,3.173-11.361,7.834c-0.019,0-0.037,0-0.055,0c-1.647,0-3.161,0.581-4.35,1.546   l-1.561-16.018H26.5v-2.5h-7.987l-0.402-4.123h33.171v-2.5H17.867l-0.364-3.739h65.771l-2.73,35.205   c-1.857-0.883-3.937-1.372-6.127-1.372C74.247,78.083,74.074,78.087,73.898,78.095z"/><path d="M27.25,83.25h2.5c0-2.113,1.72-3.833,3.833-3.833v-2.5C30.091,76.917,27.25,79.758,27.25,83.25z"/><path d="M45.583,77.886h2.5c0-1.764,1.435-3.198,3.198-3.198c1.764,0,3.199,1.435,3.199,3.198h2.5c0-3.142-2.557-5.698-5.699-5.698   C48.14,72.188,45.583,74.744,45.583,77.886z"/><path d="M36.25,70.417c0.781,0,1.417,0.636,1.417,1.417h2.5c0-2.16-1.757-3.917-3.917-3.917s-3.917,1.757-3.917,3.917h2.5   C34.833,71.053,35.469,70.417,36.25,70.417z"/><path d="M63.768,78.584v2.5c2.179,0,3.951,1.772,3.951,3.951h2.5C70.219,81.478,67.325,78.584,63.768,78.584z"/><rect x="28.5" y="54.612" width="4" height="2.5"/><path d="M54.021,24.125c-2.895,0-5.25,2.355-5.25,5.25h2.5c0-1.517,1.233-2.75,2.75-2.75s2.75,1.233,2.75,2.75h2.5   C59.271,26.48,56.916,24.125,54.021,24.125z"/><path d="M34.452,16.303c0,0,0.325,0.044,0.854,0.044c1.066,0,3.123-0.187,4.926-1.435c1.521-1.053,3.333-3.217,3.333-7.552V6.366   l-0.969-0.224c-0.073-0.017-0.74-0.165-1.688-0.165c-1.771,0-7.547,0.655-7.547,9.086l0.009,1.093L34.452,16.303z M40.907,8.478   c0.036,0,0.071,0,0.106,0.001c-0.192,2.027-0.932,3.497-2.205,4.378c-0.971,0.672-2.086,0.898-2.898,0.966   C36.215,10.274,37.892,8.478,40.907,8.478z"/></g><text x="0" y="115" fill="#000000" font-size="5px" font-weight="bold" font-family="'Helvetica Neue', Helvetica, Arial-Unicode, Arial, Sans-serif">Created by Creative Mania</text><text x="0" y="120" fill="#000000" font-size="5px" font-weight="bold" font-family="'Helvetica Neue', Helvetica, Arial-Unicode, Arial, Sans-serif">from the Noun Project</text></svg>